# xmcd
#
# Track frame offsets: 
#        150
#        18557
#        34691
#        52725
#        72060
#        87519
#        108798
#        126317
#        144786
#        164178
#        178642
#        194208
#        211339
#        229158
#        246163
#        264289
#        282017
#        298842
#        316800
#        335664
#
# Disc length: 4696 seconds
#
# Revision: 0
# Processed by: cddbd v1.5.2PL0 Copyright (c) Steve Scherf et al.
# Submitted via: ExactAudioCopy v0.99pb3
#
DISCID=2a125614
DTITLE=Various Artist - Nu Urban Traxx #123
DYEAR=2008
DGENRE=Rap
TTITLE0=Usher - Moving Mountains
TTITLE1=Nelly Ft Ashanti and Akon - Body On Me
TTITLE2=Jasmine Sullivan Ft Missy Elliott - Need U Bad
TTITLE3=Eric Benet - You're The Only One
TTITLE4=Kanye West Ft Chris Martin - Homecoming
TTITLE5=T.I. - No Matter What
TTITLE6=Yung Berg Ft Casha - The Business
TTITLE7=Lil Wayne Ft T Pain - Got Money
TTITLE8=Young Jeezy Ft Kanye West - I Put On
TTITLE9=Git Fresh - Booty Music
TTITLE10=Rick Ross Ft Nelly and Avery Storm - Here I Am
TTITLE11=LLoyd Ft Lil Wayne - Girls All Around The World
TTITLE12=Erykah Badu - Solder
TTITLE13=Lil' Wayne - A Millie
TTITLE14=Anthony David Ft India Arie - Words
TTITLE15=Lee Carr - Stilletos
TTITLE16=Pretty Ricky Ft Butta Creame - Cuddle Up
TTITLE17=Birdman Ft Lil Wayne - I Run This
TTITLE18=Jennifer Hudson - Spotlight
TTITLE19=Greg Street Presents Napp Roots - Good Day
EXTD=
EXTT0=
EXTT1=
EXTT2=
EXTT3=
EXTT4=
EXTT5=
EXTT6=
EXTT7=
EXTT8=
EXTT9=
EXTT10=
EXTT11=
EXTT12=
EXTT13=
EXTT14=
EXTT15=
EXTT16=
EXTT17=
EXTT18=
EXTT19=
PLAYORDER=
